<svg xmlns="http://www.w3.org/2000/svg" viewBox="0 0 32 32">
  <defs>
    <linearGradient id="orangeGradient" x1="0%" y1="0%" x2="100%" y2="100%">
      <stop offset="0%" style="stop-color:#fb923c"/>
      <stop offset="100%" style="stop-color:#ea580c"/>
    </linearGradient>
  </defs>
  
  <!-- Chameleon body (main oval) -->
  <ellipse cx="16" cy="16" rx="10" ry="6" fill="url(#orangeGradient)"/>
  
  <!-- Chameleon head -->
  <ellipse cx="8" cy="14" rx="4" ry="3.5" fill="url(#orangeGradient)"/>
  
  <!-- Eye socket -->
  <circle cx="6.5" cy="13" r="2" fill="#fff"/>
  
  <!-- Eye -->
  <circle cx="6.5" cy="13" r="1.3" fill="#000"/>
  <circle cx="6.8" cy="12.7" r="0.4" fill="#fff"/>
  
  <!-- Curved tail -->
  <path d="M25 18c3 0 5 2 4 5s-3 3-5 2c-1-1-1-3 0-4s1-2 1-3z" fill="url(#orangeGradient)" stroke="none"/>
  
  <!-- Front leg -->
  <ellipse cx="12" cy="21" rx="1.5" ry="3" fill="url(#orangeGradient)"/>
  
  <!-- Back leg -->
  <ellipse cx="20" cy="21" rx="1.5" ry="3" fill="url(#orangeGradient)"/>
  
  <!-- Distinctive chameleon crest -->
  <path d="M7 9c1-1 3-1 4 0s1 2 0 3c-1 0-3 0-4 0s-1-2 0-3z" fill="url(#orangeGradient)"/>
</svg>